<svg xmlns="http://www.w3.org/2000/svg" width="1200" height="138" viewBox="0 0 1200 138" role="img" aria-label="License · 许可证">
  <defs>
    <pattern id="g" width="34" height="34" patternUnits="userSpaceOnUse">
      <path d="M34 0H0V34" fill="none" stroke="#2B2620" stroke-opacity="0.045"/>
    </pattern>
  </defs>
  <rect width="1200" height="138" rx="20" fill="#F6F2E8"/>
  <rect width="1200" height="138" rx="20" fill="url(#g)"/>
  <text x="54" y="38" font-family="ui-monospace, 'SF Mono', Menlo, monospace" font-size="15" font-weight="700" letter-spacing="3" fill="#A97A3B">LICENSE</text>
  <rect x="54" y="52" width="54" height="5" rx="2.5" fill="#E8954C"/>
  <text x="54" y="104" font-family="-apple-system, BlinkMacSystemFont, 'Segoe UI', 'PingFang SC', sans-serif" font-size="40" font-weight="800" fill="#2B2620">License · 许可证</text>
  <circle cx="1062" cy="62" r="30" fill="#E8954C" opacity="0.12"/>
  <circle cx="1062" cy="62" r="27" fill="none" stroke="#E8954C" opacity="0.55" stroke-width="2.5" stroke-dasharray="3 6"/>
  <circle cx="1083" cy="45" r="2.8" fill="#F0C75F" stroke="#2B2620" stroke-width="1.8"/>
  <rect x="1040" y="44" width="44" height="40" rx="12" fill="#BFDAE4" stroke="#2B2620" stroke-width="3"/>
  <line x1="1062" y1="44" x2="1062" y2="36" stroke="#8A8070" stroke-width="2.5"/>
  <rect x="1055.5" y="28" width="13" height="11" rx="5.5" fill="#D9D2C4" stroke="#2B2620" stroke-width="2.5"/>
  <line x1="1046" y1="50" x2="1036" y2="38" stroke="#8A8070" stroke-width="2.5"/>
  <circle cx="1033" cy="34" r="4" fill="#F0C75F" stroke="#2B2620" stroke-width="2"/>
  <line x1="1078" y1="50" x2="1088" y2="38" stroke="#8A8070" stroke-width="2.5"/>
  <circle cx="1091" cy="34" r="4" fill="#F0C75F" stroke="#2B2620" stroke-width="2"/>
  <circle cx="1052" cy="60" r="3.5" fill="#FFF9E8" stroke="#2B2620" stroke-width="2"/>
  <circle cx="1072" cy="60" r="3.5" fill="#FFF9E8" stroke="#2B2620" stroke-width="2"/>
  <circle cx="1052" cy="60" r="1.6" fill="#2B2620"/>
  <circle cx="1072" cy="60" r="1.6" fill="#2B2620"/>
  <circle cx="1046" cy="67" r="2" fill="#F2A9A9" opacity="0.8"/>
  <circle cx="1078" cy="67" r="2" fill="#F2A9A9" opacity="0.8"/>
  <path d="M 1056 68 Q 1062 73 1068 68" fill="none" stroke="#2B2620" stroke-width="2" stroke-linecap="round"/>
  <path d="M 1102 33 L 1103.6 38.6 L 1109.2 40 L 1103.6 41.4 L 1102 47 L 1100.4 41.4 L 1094.8 40 L 1100.4 38.6 Z" fill="#E8954C"/>
</svg>
